<svg width="612" height="322" fill="none" xmlns="http://www.w3.org/2000/svg"><rect width="612" height="322" rx="16" fill="#181E23"/><rect x="100" y="80" width="56" height="56" rx="28" fill="#fff"/><path d="M127.99 112.79c-2.72 0-4.933-2.158-4.933-4.81 0-2.653 2.213-4.811 4.933-4.811 2.719 0 4.932 2.158 4.932 4.811 0 2.652-2.213 4.81-4.932 4.81z" fill="#fff"/><path d="M137.912 93.637c-.388-.655-1.34-1.191-2.115-1.191h-15.594c-.776 0-1.728.536-2.115 1.19l-4.557 7.699c-.036.497.058 1.016.283 1.396l3.084 5.143 5.506-9.277h17.403c.412 0 .872.152 1.273.391l-3.168-5.351z" fill="#5072AA"/><path d="M113.729 100.998l-.199.336c-.036.498.058 1.017.282 1.397l3.085 5.143 1.641-2.765-4.809-4.111z" fill="#4D6796"/><path d="M120.605 96.4a.941.941 0 01-.951-.928c0-.512.427-.928.951-.928.525 0 .952.416.952.928a.941.941 0 01-.952.928zM136.199 95.472a.87.87 0 01-.881.86.87.87 0 01-.881-.86.87.87 0 01.881-.86.87.87 0 01.881.86z" fill="#fff"/><path d="M145.709 106.809l-4.629-7.82c-.4-.24-.861-.392-1.273-.392h-6.276l5.427 9.329-8.591 14.804c-.189.319-.513.61-.884.824h6.314c.775 0 1.727-.536 2.115-1.191l7.797-13.172c.388-.655.388-1.727 0-2.382z" fill="#CC4232"/><path d="M141.289 99.34l-.208-.352c-.4-.24-.861-.391-1.273-.391h-6.275l1.633 2.808 6.123-2.066z" fill="#B23F33"/><path d="M135.318 121.279a.941.941 0 01-.952-.928c0-.512.427-.928.952-.928.525 0 .952.416.952.928a.941.941 0 01-.952.928zM142.723 108.908a.94.94 0 01-.951-.928.94.94 0 01.951-.928c.525 0 .952.416.952.928a.941.941 0 01-.952.928z" fill="#fff"/><path d="M122.524 117.256l-8.71-14.525c-.225-.38-.318-.899-.283-1.397l-3.24 5.475c-.388.655-.388 1.727 0 2.382l7.797 13.172c.388.655 1.34 1.191 2.115 1.191h9.28c.371-.214.695-.505.884-.824l3.176-5.474h-11.019z" fill="#ECB02A"/><path d="M128.955 123.554h.54c.371-.214.694-.505.883-.824l3.177-5.474h-3.383l-1.217 6.298z" fill="#C79732"/><path d="M120.605 121.279a.941.941 0 01-.951-.928c0-.512.427-.929.951-.929.525 0 .952.417.952.929a.942.942 0 01-.952.928zM113.186 108.908a.942.942 0 01-.952-.929c0-.511.427-.928.952-.928.525 0 .952.417.952.928a.942.942 0 01-.952.929z" fill="#fff"/><rect x="93" y="73" width="70" height="70" rx="35" stroke="#333C42" stroke-width="2"/><circle cx="128" cy="156" r="4" fill="#E91D00"/><rect x="196" y="80" width="56" height="56" rx="28" fill="#fff"/><path d="M219.113 94.181h8.679l-9.01 26.696a1.39 1.39 0 01-.504.682 1.39 1.39 0 01-.807.259h-6.755a1.38 1.38 0 01-1.309-1.823l8.394-24.872a1.388 1.388 0 011.312-.942z" fill="url(#paint0_linear_2_16171)"/><path d="M231.725 112.087h-13.763a.638.638 0 00-.435 1.103l8.844 8.255c.257.24.596.373.948.373h7.794l-3.388-9.731z" fill="#0078D4"/><path d="M219.113 94.181a1.372 1.372 0 00-1.315.96l-8.381 24.831a1.378 1.378 0 00.666 1.692c.197.102.415.155.637.154h6.929a1.488 1.488 0 001.137-.966l1.671-4.926 5.97 5.568c.25.207.564.322.889.324h7.764l-3.405-9.731-9.927.002 6.075-17.908h-8.71z" fill="url(#paint1_linear_2_16171)"/><path d="M230.198 95.121a1.378 1.378 0 00-1.309-.94h-9.673a1.384 1.384 0 011.309.94l8.395 24.874a1.375 1.375 0 01-.187 1.248 1.38 1.38 0 01-1.122.576h9.673a1.386 1.386 0 001.366-1.178 1.375 1.375 0 00-.057-.646l-8.395-24.874z" fill="url(#paint2_linear_2_16171)"/><rect x="189" y="73" width="70" height="70" rx="35" stroke="#333C42" stroke-width="2"/><circle cx="224" cy="156" r="4" fill="#6F1E00"/><rect x="292" y="80" width="56" height="56" rx="28" fill="#fff"/><g clip-path="url(#clip0_2_16171)"><path d="M312.696 107.297c0 .406.045.736.123.978.089.241.2.505.356.791a.472.472 0 01.078.253c0 .11-.067.219-.212.329l-.701.462c-.1.066-.2.099-.289.099-.112 0-.223-.055-.334-.154a3.38 3.38 0 01-.401-.517 7.898 7.898 0 01-.345-.648c-.869 1.011-1.96 1.517-3.274 1.517-.935 0-1.681-.264-2.226-.792-.546-.527-.824-1.23-.824-2.11 0-.934.334-1.692 1.013-2.263.679-.572 1.581-.857 2.728-.857.378 0 .768.033 1.18.088.412.054.835.142 1.28.241v-.802c0-.835-.178-1.417-.523-1.758-.356-.341-.958-.506-1.815-.506-.39 0-.79.044-1.202.143a8.97 8.97 0 00-1.203.374 3.272 3.272 0 01-.389.143.693.693 0 01-.179.033c-.155 0-.233-.11-.233-.341v-.538c0-.176.022-.308.078-.385.055-.077.155-.154.311-.231a6.48 6.48 0 011.403-.494 6.833 6.833 0 011.737-.209c1.325 0 2.293.297 2.917.89.612.593.924 1.494.924 2.703v3.561h.022zm-4.52 1.67c.367 0 .746-.066 1.147-.198a2.483 2.483 0 001.058-.703c.178-.209.311-.44.378-.703.067-.264.111-.583.111-.956v-.462a9.368 9.368 0 00-1.024-.187 8.48 8.48 0 00-1.046-.066c-.746 0-1.292.143-1.659.44-.368.297-.546.714-.546 1.264 0 .516.134.901.412 1.164.267.275.657.407 1.169.407zm8.94 1.187c-.2 0-.334-.033-.423-.11-.089-.066-.167-.22-.234-.429l-2.616-8.494c-.067-.22-.1-.363-.1-.44 0-.176.089-.274.267-.274h1.091c.212 0 .356.033.434.109.089.066.156.22.223.429l1.871 7.275 1.736-7.275c.056-.22.123-.363.212-.429.089-.065.245-.109.445-.109h.891c.211 0 .356.033.445.109.089.066.167.22.212.429l1.759 7.363 1.926-7.363c.067-.22.145-.363.223-.429.089-.065.234-.109.434-.109h1.035c.178 0 .279.088.279.274 0 .055-.011.11-.023.176a1.501 1.501 0 01-.078.275l-2.683 8.494c-.067.22-.144.363-.234.429-.089.066-.233.11-.423.11h-.957c-.212 0-.356-.033-.445-.11-.09-.077-.167-.22-.212-.44l-1.726-7.088-1.714 7.077c-.056.22-.123.363-.212.44-.089.077-.245.11-.445.11h-.958zm14.307.297a7.458 7.458 0 01-1.715-.198c-.556-.132-.99-.275-1.28-.44-.178-.099-.301-.209-.345-.308a.753.753 0 01-.067-.307v-.561c0-.23.089-.34.256-.34.067 0 .134.011.201.033.066.022.167.066.278.11.379.164.79.296 1.225.384.445.088.879.132 1.325.132.701 0 1.247-.121 1.625-.363.379-.241.579-.593.579-1.044 0-.307-.1-.56-.301-.769-.2-.209-.579-.395-1.124-.571l-1.614-.495c-.813-.252-1.414-.626-1.782-1.121a2.598 2.598 0 01-.557-1.593c0-.462.101-.868.301-1.22.201-.351.468-.659.802-.901a3.543 3.543 0 011.158-.571 4.904 4.904 0 011.402-.187c.245 0 .501.011.746.044.256.033.49.077.724.121.223.055.434.11.635.176.2.065.356.131.467.197.156.088.268.176.334.275a.586.586 0 01.101.363v.516c0 .231-.09.352-.257.352-.089 0-.233-.044-.423-.132-.634-.286-1.347-.429-2.137-.429-.635 0-1.136.099-1.481.308-.345.209-.523.528-.523.978 0 .308.111.572.334.78.222.209.634.418 1.224.605l1.581.494c.802.253 1.381.605 1.726 1.055.345.451.512.967.512 1.539 0 .472-.1.901-.289 1.274a2.963 2.963 0 01-.813.967c-.345.275-.757.473-1.236.616a5.352 5.352 0 01-1.592.231z" fill="#181E23"/><path fill-rule="evenodd" clip-rule="evenodd" d="M333.527 115.791c-3.663 2.671-8.984 4.088-13.56 4.088-6.413 0-12.192-2.341-16.556-6.231-.345-.307-.033-.725.379-.483 4.72 2.703 10.543 4.341 16.566 4.341 4.064 0 8.529-.836 12.637-2.55.612-.275 1.136.396.534.835z" fill="#F90"/><path fill-rule="evenodd" clip-rule="evenodd" d="M335.053 114.077c-.468-.593-3.095-.286-4.287-.143-.356.044-.412-.264-.089-.494 2.093-1.451 5.534-1.033 5.934-.55.401.495-.111 3.89-2.071 5.517-.3.252-.59.12-.456-.209.445-1.088 1.436-3.539.969-4.121z" fill="#F90"/></g><rect x="285" y="73" width="70" height="70" rx="35" stroke="#333C42" stroke-width="2"/><circle cx="320" cy="156" r="4" fill="#6F1E00"/><rect x="57" y="57" width="334" height="118" rx="7" stroke="#333C42" stroke-width="2"/><path d="M292 242h-65a4 4 0 01-4-4v-7a2 2 0 00-2-2v0a2 2 0 00-2 2v14a2 2 0 01-2 2v0a2 2 0 01-2-2v-20a2 2 0 10-4 0v4a2 2 0 11-4 0v-12a2 2 0 10-4 0v4a2 2 0 11-4 0v-12a2 2 0 10-4 0v12a2 2 0 01-2 2 2 2 0 00-2 2v14a2 2 0 11-4 0v-11a2 2 0 10-4 0v1a2 2 0 01-2 2 2 2 0 00-2 2v3.5a2 2 0 01-2 2v0a2 2 0 01-2-2V225a2 2 0 00-2-2v0a2 2 0 00-2 2v4a2 2 0 01-2 2v0a2 2 0 01-2-2v-12a2 2 0 00-2-2v0a2 2 0 00-2 2v4a2 2 0 01-2 2v0a2 2 0 01-2-2v-20a2 2 0 00-2-2v0a2 2 0 00-2 2v20a2 2 0 01-2 2v0a2 2 0 00-2 2v20a2 2 0 01-2 2v0a2 2 0 01-2-2v-32a2 2 0 00-2-2v0a2 2 0 00-2 2v8a2 2 0 01-2 2v0a2 2 0 00-2 2v8a2 2 0 01-2 2v0a2 2 0 01-2-2v-2a4 4 0 00-4-4H65.5" stroke="#00BE7C" stroke-width="2"/><rect x="57" y="181" width="244" height="84" rx="7" stroke="#333C42" stroke-width="2"/><rect x="312" y="186" width="14" height="14" rx="1" stroke="#F68C00" stroke-width="2"/><rect x="332" y="186" width="14" height="14" rx="1" stroke="#F68C00" stroke-width="2"/><rect x="352" y="186" width="14" height="14" rx="1" stroke="#843F00" stroke-width="2"/><rect x="372" y="186" width="14" height="14" rx="1" stroke="#843F00" stroke-width="2"/><rect x="312" y="206" width="14" height="14" rx="1" stroke="#843F00" stroke-width="2"/><rect x="332" y="206" width="14" height="14" rx="1" stroke="#843F00" stroke-width="2"/><rect x="352" y="206" width="14" height="14" rx="1" stroke="#843F00" stroke-width="2"/><rect x="372" y="206" width="14" height="14" rx="1" stroke="#F68C00" stroke-width="2"/><rect x="312" y="226" width="14" height="14" rx="1" stroke="#843F00" stroke-width="2"/><rect x="332" y="226" width="14" height="14" rx="1" stroke="#F68C00" stroke-width="2"/><rect x="352" y="226" width="14" height="14" rx="1" stroke="#843F00" stroke-width="2"/><rect x="372" y="226" width="14" height="14" rx="1" stroke="#843F00" stroke-width="2"/><rect x="312" y="246" width="14" height="14" rx="1" stroke="#843F00" stroke-width="2"/><rect x="332" y="246" width="14" height="14" rx="1" stroke="#843F00" stroke-width="2"/><rect x="352" y="246" width="14" height="14" rx="1" stroke="#843F00" stroke-width="2"/><rect x="372" y="246" width="14" height="14" rx="1" stroke="#843F00" stroke-width="2"/><g clip-path="url(#clip1_2_16171)"><path d="M476 129.625l28.75-28.75M476 129.625V89m0 40.625l28.125 28.125M476 129.625h40m-40 0h-40m40 0l-28.75-28.75m28.75 28.75l-28.125 28.125" stroke="#fff" stroke-width="2"/><path d="M476.162 129.604l20.329-35.212m-20.329 35.212l-10.515-39.241m10.515 39.241l34.446 19.887m-34.446-19.887l38.637-10.353m-38.637 10.353l-38.637 10.352m38.637-10.352l-35.212-20.33M475.874 129.074l-17.963 31.112M476.01 129.017l-9.298 34.702M476.312 129.541l10.524-39.273m-10.524 39.273L456 94.359m20.312 35.182l38.42 10.295m-38.42-10.295l34.641-20m-34.641 20l-34.641 20m34.641-20l-39.273-10.523" stroke="#333C42" stroke-width="2"/><circle cx="476" cy="129" r="30" transform="rotate(90 476 129)" fill="#181E23" stroke="#181E23" stroke-width="4"/><circle cx="476" cy="129" r="27" transform="rotate(90 476 129)" fill="#181E23" stroke="#fff" stroke-width="2"/><path fill="#5CAAFF" d="M475 105h2v10h-2z"/><path d="M476 113c-8.837 0-16 7.163-16 16s7.163 16 16 16 16-7.163 16-16-7.163-16-16-16z" stroke="#181E23" stroke-width="2"/><path d="M462 129c0-7.732 6.268-14 14-14s14 6.268 14 14-6.268 14-14 14-14-6.268-14-14z" fill="#181E23" stroke="#49535F" stroke-width="2"/><path fill="#5CAAFF" d="M473.293 130.293l1.414 1.414-5.533 5.533-1.414-1.414z"/></g><path d="M474.255 177h3.5a.7.7 0 00.7-.69v-5.61c0-.38-.31-.7-.7-.7h-3.5a.71.71 0 00-.71.7v5.61c0 .38.33.69.71.69zm.7-1.4l-.01-.01v-4.18l.01-.01h2.09l.01.01v4.18l-.01.01h-2.09z" fill="#49535F"/><path d="M439.897 91.79c.14-.12.21-.3.21-.48V89l-1.03-.43v-.14l1.03-.43v-2.3c0-.18-.07-.36-.2-.5a.811.811 0 00-.5-.2h-3.51v1.4h2.81v1.54h-2.1v1.13h2.1v1.53h-2.81V92h3.51c.17 0 .36-.08.49-.21zM476.707 75.4v2.91h-1.41V74h-1.4v4.8c0 .38.36.71.71.71h2.1V81h1.4v-5.6h-1.4zM516.107 86h-4.21v4.11h2.81v1.49h-2.81V93h3.51c.17 0 .36-.08.49-.21.14-.12.21-.3.21-.48V89.6c0-.18-.07-.36-.21-.5a.714.714 0 00-.49-.2h-2.11v-1.5h2.81V86zM528.755 126.2a.75.75 0 00-.21.5v5.61c0 .18.08.36.21.48.15.13.32.21.5.21h3.51c.18 0 .35-.08.48-.21.14-.14.21-.3.21-.48v-2.71c0-.18-.07-.36-.21-.5-.13-.13-.3-.2-.48-.2h-2.82v-1.5h2.81V126h-3.5c-.18 0-.35.08-.5.2zm1.19 3.91h2.11v1.49h-2.11v-1.49zM422.407 126h-3.51v1.4h2.81v1.4h-2.1c-.18 0-.35.07-.5.2a.77.77 0 00-.21.5v3.5h4.21v-1.4h-2.81v-1.4h2.11c.17 0 .36-.07.49-.21.14-.13.21-.31.21-.49v-2.8c0-.18-.07-.36-.21-.5a.763.763 0 00-.49-.2zM439.657 166.4v5.6h1.4v-7h-2.11v1.4h.71zM510.897 165v1.4h2.81v.41l-1.82 2.11V172h1.4v-2.5l1.82-2.11V165h-4.21zM441.433 198h3.5v-1.4h-2.8l-.01-.01v-4.18l.01-.01h2.8v-1.39l-3.5-.01a.71.71 0 00-.71.7v5.61c0 .38.33.69.71.69zm5.586 0h3.5a.7.7 0 00.7-.69V191h-1.4v5.59l-.01.01h-2.09l-.01-.01V191h-1.4v6.31c0 .38.33.69.71.69zm5.579 0h3.51a.7.7 0 00.7-.69v-2.72c0-.39-.32-.7-.7-.7h-2.1l-.01-.01v-1.46l.01-.01h2.8v-1.4h-3.5a.71.71 0 00-.71.7v2.7c0 .39.33.71.71.71h2.08l.02.01v1.46l-.02.01h-2.79v1.4zm9.796-7h-4.21v1.4h1.4v5.6h1.41v-5.6h1.4V191zm2.086 7h3.5a.7.7 0 00.7-.69v-5.61c0-.38-.31-.7-.7-.7h-3.5a.71.71 0 00-.71.7v5.61c0 .38.33.69.71.69zm.7-1.4l-.01-.01v-4.18l.01-.01h2.09l.01.01v4.18l-.01.01h-2.09zm4.879 1.4h1.4v-5.49h.11l.87 3.2h1.56l.87-3.2h.1V198h1.4v-7h-2.21l-.86 3.41h-.15l-.87-3.41h-2.22v7zm7.686 0h1.4v-7h-1.4v7zm2.783 0h3.71v-1.29h-2.26v-.11l2.26-4.39V191h-3.71v1.3h2.26v.1l-2.26 4.39V198zm9.298-7h-3.5a.71.71 0 00-.71.7v6.3h1.4v-2.23h2.11V198h1.4v-6.3c0-.39-.3-.7-.7-.7zm-2.81 3.63v-2.22l.01-.01h2.09l.01.01v2.22h-2.11zm9.099-3.63h-4.21v1.4h1.4v5.6h1.41v-5.6h1.4V191zm1.376 7h1.4v-7h-1.4v7zm3.493 0h3.5a.7.7 0 00.7-.69v-5.61c0-.38-.31-.7-.7-.7h-3.5a.71.71 0 00-.71.7v5.61c0 .38.33.69.71.69zm.7-1.4l-.01-.01v-4.18l.01-.01h2.09l.01.01v4.18l-.01.01h-2.09zm4.879 1.4h1.31v-4.45h.09l1.64 4.45h1.67v-7h-1.3v4.45h-.1l-1.63-4.45h-1.68v7z" fill="#fff"/><rect x="397" y="57" width="158" height="156" rx="7" stroke="#333C42" stroke-width="2"/><rect x="396" y="218" width="160" height="48" rx="8" fill="#5CAAFF"/><path fill-rule="evenodd" clip-rule="evenodd" d="M449.992 235l-2.752-4.816 1.52-.868 6.24 10.92 2.74-4.795 1.52.868-6.252 10.941h5.492V249h-12.492l2.752 4.816-1.52.868-6.24-10.92-2.74 4.795-1.52-.868 6.252-10.941H437.5V235h12.492zm1 1.75h-5.984l-3 5.25 3 5.25h5.984l3-5.25-3-5.25z" fill="#000"/><path d="M479.2 238.56v-1.728h-8.8v1.728h3.36V248h2.08v-9.44h3.36zm1.594 9.44h6.96v-1.616h-2.864V243.6c0-1.056.688-1.936 1.984-1.936h1.696v-1.92h-.896c-1.648 0-2.352 1.088-2.656 2.256h-.128v-2.256h-4.096v1.616h2.048v5.024h-2.048V248zm17.433 0v-1.536h-.975v-3.888c0-1.984-1.312-3.024-3.472-3.024-1.792 0-2.944.72-3.456 1.632l1.168.992c.448-.64 1.04-1.088 2.08-1.088 1.136 0 1.632.544 1.632 1.584v.544h-1.456c-2.432 0-3.664.832-3.664 2.496 0 1.552 1.072 2.48 2.72 2.48 1.28 0 2.192-.592 2.496-1.616h.08c.096.88.656 1.424 1.648 1.424h1.199zm-4.735-1.216c-.848 0-1.376-.352-1.376-1.008v-.32c0-.688.56-1.056 1.68-1.056h1.408v1.104c0 .784-.736 1.28-1.712 1.28zm10.601-8.32c.96 0 1.312-.464 1.312-1.04v-.384c0-.576-.352-1.04-1.312-1.04-.96 0-1.312.464-1.312 1.04v.384c0 .576.352 1.04 1.312 1.04zM500.349 248h7.296v-1.616h-2.528v-6.64h-4.768v1.616h2.72v5.024h-2.72V248zm11.274 0v-5.52c0-.88.8-1.312 1.632-1.312 1.024 0 1.552.608 1.552 1.792V248h2.048v-5.328c0-2-1.12-3.12-2.736-3.12-1.344 0-2.048.752-2.416 1.648h-.08v-1.456h-2.048V248h2.048z" fill="#000"/><defs><linearGradient id="paint0_linear_2_16171" x1="222.276" y1="96.229" x2="213.262" y2="122.858" gradientUnits="userSpaceOnUse"><stop stop-color="#114A8B"/><stop offset="1" stop-color="#0669BC"/></linearGradient><linearGradient id="paint1_linear_2_16171" x1="225.092" y1="108.639" x2="223.007" y2="109.344" gradientUnits="userSpaceOnUse"><stop stop-opacity=".3"/><stop offset=".071" stop-opacity=".2"/><stop offset=".321" stop-opacity=".1"/><stop offset=".623" stop-opacity=".05"/><stop offset="1" stop-opacity="0"/></linearGradient><linearGradient id="paint2_linear_2_16171" x1="223.945" y1="95.453" x2="233.839" y2="121.813" gradientUnits="userSpaceOnUse"><stop stop-color="#3CCBF4"/><stop offset="1" stop-color="#2892DF"/></linearGradient><clipPath id="clip0_2_16171"><path fill="#fff" transform="translate(303.077 100)" d="M0 0h33.846v20H0z"/></clipPath><clipPath id="clip1_2_16171"><rect x="516" y="89" width="80" height="80" rx="40" transform="rotate(90 516 89)" fill="#fff"/></clipPath></defs></svg>